<svg xmlns="http://www.w3.org/2000/svg" width="69" height="70" viewBox="0 0 69 70" fill="none"><path d="M29.6143 19.225L29.6143 19.2252C28.612 24.493 24.4331 28.5785 19.1465 29.4581L19.1449 29.4584L4.61009 31.8862C3.41555 32.0857 2.53581 33.1128 2.52213 34.3238C2.50845 35.5348 3.36477 36.5815 4.5545 36.808L19.0323 39.5637L19.0325 39.5638C24.3002 40.566 28.3864 44.7451 29.2692 50.033L29.2693 50.0332L31.6971 64.568C31.8966 65.7625 32.9237 66.6423 34.1347 66.656C35.3457 66.6696 36.3924 65.8133 36.6188 64.6236L39.3746 50.1458L39.3747 50.1456C40.3769 44.8779 44.5559 40.7917 49.8438 39.9089L49.844 39.9088L64.3789 37.481C65.5735 37.2815 66.4533 36.2542 66.4668 35.0431C66.4804 33.832 65.6238 32.7854 64.4339 32.5592L49.9565 29.807C49.9563 29.8069 49.9562 29.8069 49.9561 29.8069C44.6886 28.8045 40.6025 24.6256 39.7197 19.3378L39.7197 19.3376L37.2919 4.80278C37.0923 3.60823 36.0653 2.7285 34.8543 2.71482C33.6432 2.70114 32.5966 3.55745 32.3701 4.74719L29.6143 19.225Z" fill="#FBDAA7" stroke="#8D0A10" stroke-width="5" stroke-linejoin="round"></path></svg>